<svg height="100%" style="overflow: visible;" width="100%"><g transform="translate(47.625,16)"><defs><lineargradient id="varkUe-237" x1="0%" x2="0%" y1="0%" y2="100%"><stop offset="0%" stop-color="#EA4335" stop-opacity="0.38"></stop><stop offset="90%" stop-color="#FCDEE5" stop-opacity="0"></stop></lineargradient><mask id="DAdeKc-237"><rect fill="white" height="228" width="847.375" y="-2"></rect></mask></defs><g class="pmHZZb"><g fill="none" font-family="sans-serif" font-size="10" text-anchor="middle" transform="translate(0,224)"><path class="domain" d="M0.5,0.5H847.875" stroke="currentColor" style="color: rgb(95, 99, 104); stroke-width: 1; opacity: 1;"></path><g class="tick" opacity="1" transform="translate(35.8318276580959,0)"><line stroke="currentColor" style="color: rgb(95, 99, 104); stroke-width: 2;" y2="6"></line><text dy="0.71em" fill="currentColor" style="font-family: Roboto, Arial, sans-serif; font-size: 12px; line-height: 16px; color: rgb(95, 99, 104);" y="14">1:00 AM</text></g><g class="tick" opacity="1" transform="translate(177.15913829047952,0)"><line stroke="currentColor" style="color: rgb(95, 99, 104); stroke-width: 2;" y2="6"></line><text dy="0.71em" fill="currentColor" style="font-family: Roboto, Arial, sans-serif; font-size: 12px; line-height: 16px; color: rgb(95, 99, 104);" y="14">5:00 AM</text></g><g class="tick" opacity="1" transform="translate(318.48644892286313,0)"><line stroke="currentColor" style="color: rgb(95, 99, 104); stroke-width: 2;" y2="6"></line><text dy="0.71em" fill="currentColor" style="font-family: Roboto, Arial, sans-serif; font-size: 12px; line-height: 16px; color: rgb(95, 99, 104);" y="14">9:00 AM</text></g><g class="tick" opacity="1" transform="translate(459.8137595552467,0)"><line stroke="currentColor" style="color: rgb(95, 99, 104); stroke-width: 2;" y2="6"></line><text dy="0.71em" fill="currentColor" style="font-family: Roboto, Arial, sans-serif; font-size: 12px; line-height: 16px; color: rgb(95, 99, 104);" y="14">1:00 PM</text></g><g class="tick" opacity="1" transform="translate(601.1410701876302,0)"><line stroke="currentColor" style="color: rgb(95, 99, 104); stroke-width: 2;" y2="6"></line><text dy="0.71em" fill="currentColor" style="font-family: Roboto, Arial, sans-serif; font-size: 12px; line-height: 16px; color: rgb(95, 99, 104);" y="14">5:00 PM</text></g><g class="tick" opacity="1" transform="translate(742.468380820014,0)"><line stroke="currentColor" style="color: rgb(95, 99, 104); stroke-width: 2;" y2="6"></line><text dy="0.71em" fill="currentColor" style="font-family: Roboto, Arial, sans-serif; font-size: 12px; line-height: 16px; color: rgb(95, 99, 104);" y="14">9:00 PM</text></g></g><g fill="none" font-family="sans-serif" font-size="10" text-anchor="end" transform="translate(0, 0)"><g class="tick" opacity="1" transform="translate(0,224.5)"><line stroke="currentColor" style="opacity: 0.5; stroke-width: 1px; color: rgb(232, 234, 237);" transform="translate(0, 0)" x2="847.375"></line><text dy="0.32em" fill="currentColor" style="font-family: Roboto, Arial, sans-serif; font-size: 12px; line-height: 16px; letter-spacing: 0.3px; color: rgb(95, 99, 104);" x="-8">12.70</text></g><g class="tick" opacity="1" transform="translate(0,168.49999999999628)"><line stroke="currentColor" style="opacity: 0.5; stroke-width: 1px; color: rgb(232, 234, 237);" transform="translate(0, 0)" x2="847.375"></line><text dy="0.32em" fill="currentColor" style="font-family: Roboto, Arial, sans-serif; font-size: 12px; line-height: 16px; letter-spacing: 0.3px; color: rgb(95, 99, 104);" x="-8">12.72</text></g><g class="tick" opacity="1" transform="translate(0,112.49999999999751)"><line stroke="currentColor" style="opacity: 0.5; stroke-width: 1px; color: rgb(232, 234, 237);" transform="translate(0, 0)" x2="847.375"></line><text dy="0.32em" fill="currentColor" style="font-family: Roboto, Arial, sans-serif; font-size: 12px; line-height: 16px; letter-spacing: 0.3px; color: rgb(95, 99, 104);" x="-8">12.74</text></g><g class="tick" opacity="1" transform="translate(0,56.49999999999875)"><line stroke="currentColor" style="opacity: 0.5; stroke-width: 1px; color: rgb(232, 234, 237);" transform="translate(0, 0)" x2="847.375"></line><text dy="0.32em" fill="currentColor" style="font-family: Roboto, Arial, sans-serif; font-size: 12px; line-height: 16px; letter-spacing: 0.3px; color: rgb(95, 99, 104);" x="-8">12.76</text></g><g class="tick" opacity="1" transform="translate(0,0.5)"><line stroke="currentColor" style="opacity: 0.5; stroke-width: 1px; color: rgb(232, 234, 237);" transform="translate(0, 0)" x2="847.375"></line><text dy="0.32em" fill="currentColor" style="font-family: Roboto, Arial, sans-serif; font-size: 12px; line-height: 16px; letter-spacing: 0.3px; color: rgb(95, 99, 104);" x="-8">12.78</text></g></g></g><g class="d2NTdf"></g><g class="gJBfM" mask="url(https://www.google.com/finance/quote/SAR-EGP#DAdeKc-237)"><path d="M35.9206914523975,61.805939999999936C36.90213110956683,62.81298799999989,37.883570766736156,63.820035999999845,38.86501042390549,63.820035999999845C72.82282256196433,63.820035999999845,106.78063470002317,60.98192799999674,140.738446838082,60.98192799999674C140.93473476951587,60.98192799999674,141.13102270094973,61.35471999999916,141.3273106323836,61.35471999999916C227.69400046328468,61.35471999999916,314.0606902941858,37.21169199999818,400.42738012508687,37.21169199999818C401.01624391938844,37.21169199999818,401.6051077136901,38.03315599999945,402.19397150799165,38.03315599999945C402.3902594394255,38.03315599999945,402.5865473708594,30.639783999996666,402.7828353022933,30.639783999996666C402.97912323372714,30.639783999996666,403.175411165161,31.013192000000316,403.37169909659485,31.013192000000316C403.9605628908964,31.013192000000316,404.54942668519806,23.993199999998865,405.13829047949963,23.993199999998865C405.72715427380126,23.993199999998865,406.31601806810284,25.80796000000087,406.90488186240447,26.300848000000315C408.2788973824415,27.450919999998973,409.65291290247853,26.875883999999644,411.0269284225156,28.025955999998303C411.8120801482511,28.683139999997564,412.5972318739866,31.013192000000316,413.38238359972206,31.013192000000316C413.5786715311559,31.013192000000316,413.7749594625898,30.66883477777715,413.97124739402364,30.490431999999117C414.5601111883252,29.955223666665,415.14897498262684,28.77277200000063,415.7378387769284,28.77277200000063C415.93412670836227,28.77277200000063,416.13041463979613,29.4656506666653,416.32670257123,29.96767199999792C416.7192784340977,30.971714666663203,417.1118542969655,34.22445599999617,417.5044301598332,34.22445599999617C417.70071809126705,34.22445599999617,417.89700602270096,31.685303999999064,418.0932939541348,31.685303999999064C418.8784456798703,31.685303999999064,419.66359740560574,32.43211999999642,420.44874913134123,32.43211999999642C420.6450370627751,32.43211999999642,420.84132499420895,30.56510800000038,421.0376129256428,30.56510800000038C421.4301887885105,30.56510800000038,421.8227646513783,38.39827600000035,422.215340514246,41.39380000000014C422.41162844567987,42.891561999999965,422.6079163771137,45.42655599999955,422.8042043085476,45.42655599999955C423.3930681028492,45.42655599999955,423.9819318971508,43.194123666665796,424.5707956914524,40.721659999999076C425.3559474171879,37.42504177777684,426.14109914292334,26.009591999999742,426.9262508686588,26.009591999999742C427.1225388000927,26.009591999999742,427.3188267315265,39.82548266666518,427.51511466296034,40.27357599999914C427.7114025943942,40.72166933333318,427.9076905258281,40.9457160000002,428.103978457262,40.9457160000002C428.6928422515636,40.9457160000002,429.2817060458652,40.198879000000275,429.8705698401668,39.8254919999992C430.06685777160067,39.701029666665505,430.2631457030346,39.701031999998754,430.45943363446844,39.45211199999787C430.6557215659023,39.203191999997024,430.8520094973361,38.107859999998055,431.04829742876996,38.107859999998055C431.2445853602038,38.107859999998055,431.44087329163773,38.18253599999932,431.6371612230716,38.18253599999932C432.0297370859393,38.18253599999932,432.422312948807,38.082958666665185,432.81488881167473,37.88380399999693C433.0111767431086,37.78422666666279,433.2074646745425,34.79699999999655,433.40375260597636,34.747215999997366C433.7963284688441,34.647647999999,434.1889043317118,34.653338666665945,434.5814801945795,34.59786399999982C435.56291985174886,34.45917733333449,436.54435950891826,34.07510399999862,437.5257991660876,34.07510399999862C437.9183750289553,34.07510399999862,438.31095089182304,34.94637066666562,438.70352675469076,36.68890399999964C439.0961026175585,38.431437333333655,439.4886784804262,53.253087999995984,439.8812543432939,53.253087999995984C440.47011813759553,53.253087999995984,441.0589819318971,38.55594399999799,441.64784572619874,38.55594399999799C441.8441336576326,38.55594399999799,442.0404215890665,38.69077022222024,442.23670952050037,38.854647999998065C442.82557331480194,39.34628133333151,443.4144371091036,39.92506933333166,444.00330090340515,42.06591199999886C444.39587676627286,43.49314044444361,444.7884526291406,51.25719306666505,445.1810284920083,54.83631999999824C446.16246814917764,63.784137333331714,447.143907806347,68.97335199999824,448.12534746351633,68.97335199999824C448.51792332638405,68.97335199999824,448.9104991892518,57.67415733333876,449.30307505211954,56.77800800000051C449.4993629835534,56.32993333333136,449.6956509149873,56.205482666663386,449.89193884642117,56.10589599999679C450.088226777855,56.006309333330215,450.2845147092888,56.0561026666635,450.4808026407227,55.956515999996924C451.2659543664582,55.55816933333056,452.0511060921936,52.23907422221858,452.8362578179291,51.47567599999755C453.2288336807968,51.09397688888703,453.6214095436646,50.87824000000006,454.0139854065323,50.87824000000006C454.21027333796616,50.87824000000006,454.4065612694001,51.16534577777782,454.60284920083393,51.326324C455.5842888580032,52.13121511111082,456.56572851517257,54.61226399999711,457.54716817234186,54.61226399999711C457.7434561037757,54.61226399999711,457.9397440352096,53.641419999995975,458.1360319666435,53.641419999995975C458.5286078295112,53.641419999995975,458.921183692379,54.98567199999579,459.3137595552467,54.98567199999579C459.90262334954826,54.98567199999579,460.4914871438499,53.87165933333253,461.08035093815147,51.99843599999875C461.2766388695853,51.37402822222078,461.47292680101924,50.89898955555352,461.6692147324531,49.832719999997664C462.0617905953208,47.70018088888616,462.45436645818853,39.302731999998,462.84694232105625,39.302731999998C463.63209404679174,39.302731999998,464.41724577252717,50.24595333333586,465.20239749826266,52.222491999999875C465.3986854296965,52.7166266666659,465.5949733611304,53.2680119999973,465.7912612925643,53.2680119999973C465.98754922399814,53.2680119999973,466.183837155432,50.8035639999988,466.38012508686586,50.8035639999988C467.16527681260135,50.8035639999988,467.9504285383368,50.8035639999988,468.73558026407227,50.8035639999988C468.9318681955061,50.8035639999988,469.12815612694004,56.77800800000051,469.3244440583739,56.77800800000051C469.7170199212416,56.77800800000051,470.10959578410933,56.1805626666656,470.50217164697705,54.98567199999579C470.89474750984476,53.79078133332592,471.28732337271254,41.732340533330344,471.67989923558025,41.09506799999775C472.6613388927496,39.50188666666626,473.64277854991894,38.705296000000516,474.6242182070883,38.705296000000516C474.82050613852215,38.705296000000516,475.01679406995595,50.57950799999767,475.2130820013898,50.57950799999767C475.9982337271253,50.57950799999767,476.7833854528607,44.156979999996025,477.5685371785962,44.156979999996025C478.15740097289785,44.156979999996025,478.7462647671994,45.27720399999703,479.33512856150105,45.27720399999703C480.31656821867034,45.27720399999703,481.2980078758397,43.25044227777813,482.279447533009,40.9457160000002C482.8683113273106,39.56288023333339,483.4571751216122,35.86743999999837,484.0460389159138,35.86743999999837C484.4386147787816,35.86743999999837,484.8311906416493,37.06230577777599,485.2237665045171,37.95847999999819C485.42005443595093,38.406567111109204,485.61634236738473,38.8671126666649,485.8126302988186,39.45211199999787C486.00891823025245,40.03711133333095,486.20520616168636,40.12423333333072,486.4014940931202,41.46847599999643C486.79406995598794,44.15696133332759,487.18664581885565,58.60769599999708,487.57922168172337,58.60769599999708C488.168085476025,58.60769599999708,488.7569492703266,54.31355999999704,489.3458130646282,54.31355999999704C489.738388927496,54.31355999999704,490.1309647903637,72.01285466666248,490.52354065323146,72.61029999999585C490.7198285846653,72.90902266666247,490.9161165160991,72.75966133332916,491.112404447533,73.05838399999578C491.30869237896684,73.35710666666246,491.50498031040075,74.97517066666353,491.7012682418346,75.37347999999673C491.89755617326847,75.77178933332993,492.0938441047024,75.97094399999654,492.29013203613624,75.97094399999654C492.4864199675701,75.97094399999654,492.6827078990039,75.44818400000031,492.87899583043776,75.44818400000031C493.0752837618716,75.44818400000031,493.27157169330553,76.00828199999799,493.4678596247394,76.49370399999773C493.66414755617325,76.97912599999748,493.86043548760716,78.36071599999875,494.056723419041,78.36071599999875C494.2530113504749,78.36071599999875,494.4492992819087,76.64305600000026,494.64558721334254,76.64305600000026C495.0381630762103,76.64305600000026,495.430738939078,81.04921999999837,495.8233148019458,81.04921999999837C496.2158906648135,81.04921999999837,496.6084665276813,54.562501777773065,497.001042390549,48.86187599999653C497.19733032198286,46.011563111108124,497.3936182534168,44.08230399999974,497.58990618485063,44.08230399999974C497.7861941162845,44.08230399999974,497.9824820477183,48.26442133333439,498.17876997915215,49.53398800000025C498.5713458420199,52.07312133333246,498.96392170488764,53.34268799999856,499.3564975677554,53.34268799999856C499.945361362057,53.34268799999856,500.5342251563586,45.50123199999584,501.1230889506602,45.50123199999584C501.5156648135279,45.50123199999584,501.9082406763957,48.18972479999851,502.3008165392634,49.30993199999912C502.88968033356497,50.99024280000001,503.4785441278666,52.110449999999126,504.0674079221682,53.34268799999856C504.4599837850359,54.164179999998154,504.8525596479036,55.491865333329606,505.2451355107713,55.65781199999685C505.83399930507295,55.90673199999774,506.4228630993745,56.031191999998185,507.01172689367615,56.031191999998185C507.40430275654387,56.031191999998185,507.79687861941164,53.76755253333185,508.18945448227936,52.59589999999855C508.778318276581,50.83842119999858,509.36718207088256,47.14421599999804,509.9560458651842,47.14421599999804C510.3486217280519,47.14421599999804,510.7411975909196,52.886306666665774,511.13377345378734,54.68693999999837C511.3300613852212,55.58725666666476,511.5263493166551,55.40885466666452,511.722637248089,56.8526839999968C511.91892517952283,58.296513333328946,512.1152131109567,81.00441999999708,512.3115010423905,81.00441999999708C512.5077889738244,81.00441999999708,512.7040769052583,62.379071999995396,512.9003648366921,59.69056799999629C513.096652768126,57.002063999996665,513.29294069956,56.6660033333303,513.4892286309938,55.65781199999685C513.6855165624277,54.64962066666379,513.8818044938614,54.03971066666081,514.0780924252953,53.641419999995975C514.2743803567291,53.243129333330984,514.4706682881631,53.40493822222025,514.666956219597,53.04398399999849C515.0595320824647,52.322075555555095,515.4521079453324,48.93655199999779,515.8446838082001,48.93655199999779C516.2372596710678,48.93655199999779,516.6298355339356,49.832719999997664,517.0224113968034,49.832719999997664C517.4149872596711,49.832719999997664,517.8075631225388,45.02823733333223,518.2001389854065,44.754415999998486C518.9852907111419,44.20677333333097,519.7704424368775,43.932951999997215,520.5555941626129,43.932951999997215C521.5370338197822,43.932951999997215,522.5184734769516,46.0986679999983,523.4999131341209,46.0986679999983C524.873928654158,46.0986679999983,526.247944174195,44.23165599999729,527.6219596942321,44.23165599999729C528.2108234885337,44.23165599999729,528.7996872828354,71.14657199999846,529.388551077137,71.14657199999846C529.7811269400047,71.14657199999846,530.1737028028724,50.69567377777656,530.5662786657401,49.23525599999786C531.1551424600417,47.0446293333298,531.7440062543433,45.949315999995775,532.3328700486448,45.949315999995775C532.7254459115126,45.949315999995775,533.1180217743803,50.131423999997736,533.510597637248,50.131423999997736C533.7068855686819,50.131423999997736,533.9031735001158,49.45931199999899,534.0994614315497,49.45931199999899C534.2957493629835,49.45931199999899,534.4920372944174,50.2808039999976,534.6883252258513,50.2808039999976C534.8846131572851,50.2808039999976,535.080901088719,49.53896919999964,535.2771890201528,49.08590400000031C536.0623407458883,47.273643200002894,536.8474924716238,41.02039199999649,537.6326441973592,41.02039199999649C538.025220060227,41.02039199999649,538.4177959230947,41.385499555555946,538.8103717859624,41.84188400000008C539.0066597173962,42.07007622222219,539.2029476488302,42.663375999998664,539.3992355802641,42.663375999998664C539.7918114431318,42.663375999998664,540.1843873059995,39.302731999998,540.5769631688672,39.302731999998C541.5584028260366,39.302731999998,542.5398424832059,41.64583383333207,543.5212821403753,42.5139959999988C544.1101459346769,43.0348932999988,544.6990097289785,43.85824799999861,545.28787352328,43.85824799999861C545.4841614547139,43.85824799999861,545.6804493861478,43.18613599999986,545.8767373175816,43.18613599999986C546.0730252490155,43.18613599999986,546.2693131804493,61.617303999999905,546.4656011118832,61.617303999999905C546.661889043317,61.617303999999905,546.858176974751,61.617303999999905,547.0544649061849,61.617303999999905C547.4470407690526,61.617303999999905,547.8396166319203,44.754415999998486,548.232192494788,44.754415999998486C548.4284804262219,44.754415999998486,548.6247683576559,47.866139999994935,548.8210562890897,47.96570799999665C549.0173442205236,48.065275999998335,549.2136321519573,48.015491999997494,549.4099200833912,48.115059999999175C549.606208014825,48.21462800000089,549.802495946259,48.38889066666538,549.9987838776929,48.93655199999779C550.1950718091267,49.48421333333009,550.3913597405606,68.63729599999638,550.5876476719944,68.63729599999638C550.7839356034283,68.63729599999638,550.9802235348621,50.67906666666525,551.176511466296,49.23525599999786C551.3727993977299,47.79144533333047,551.5690873291637,47.16912666666334,551.7653752605976,47.06953999999678C551.9616631920314,46.9699533333302,552.1579511234654,46.92015999999691,552.3542390548993,46.92015999999691C553.3356787120686,46.92015999999691,554.317118369238,47.66697599999924,555.2985580264072,47.66697599999924C556.2799976835765,47.66697599999924,557.2614373407459,47.59229066666553,558.2428769979152,47.44291999999811C558.635452860783,47.38317173333114,559.0280287236508,44.90379599999835,559.4206045865185,44.90379599999835C559.6168925179524,44.90379599999835,559.8131804493861,45.42655599999955,560.00946838082,45.42655599999955C560.2057563122538,45.42655599999955,560.4020442436878,44.729523999998946,560.5983321751216,44.30633199999855C560.7946201065555,43.883139999998235,560.9909080379894,42.887403999997474,561.1871959694232,42.887403999997474C561.3834839008571,42.887403999997474,561.5797718322909,43.27739422222094,561.7760597637248,43.41016399999867C562.3649235580264,43.808473333331875,562.9537873523279,44.007627999998476,563.5426511466295,44.007627999998476C563.7389390780634,44.007627999998476,563.9352270094973,43.22346933333096,564.1315149409312,42.887403999997474C564.5240908037989,42.21527333333062,564.9166666666666,42.19040311111009,565.3092425295343,41.31912399999888C565.5055304609682,40.88348444444319,565.7018183924022,40.41049599999855,565.898106323836,39.75081599999794C566.0943942552699,39.091135999997455,566.2906821867037,37.36104399999573,566.4869701181376,37.36104399999573C566.6832580495715,37.36104399999573,566.8795459810053,38.705296000000516,567.0758339124392,38.705296000000516C567.8609856381746,38.705296000000516,568.6461373639102,38.605718666666384,569.4312890896456,38.40656399999813C569.8238649525133,38.306986666664,570.216440815381,36.820009333332706,570.6090166782487,36.2408199999997C571.1978804725503,35.372036000000136,571.786744266852,35.05839088888887,572.3756080611536,34.59786399999982C573.5533356497567,33.67681022222173,574.73106323836,32.880203999996354,575.9087908269631,32.880203999996354C576.6939425526986,32.880203999996354,577.4790942784341,38.189983999998816,578.2642460041695,38.189983999998816C579.2456856613388,38.189983999998816,580.2271253185082,33.92572399999875,581.2085649756775,33.92572399999875C581.4048529071114,33.92572399999875,581.6011408385452,34.14977999999988,581.7974287699791,34.14977999999988C581.993716701413,34.14977999999988,582.1900046328469,33.10423200000014,582.3862925642808,33.10423200000014C582.9751563585824,33.10423200000014,583.564020152884,36.91296933332655,584.1528839471856,37.36104399999573C584.7417477414872,37.80911866666488,585.3306115357888,38.03315599999945,585.9194753300903,38.03315599999945C586.312051192958,38.03315599999945,586.7046270558258,37.62159084444169,587.0972029186935,37.43571999999699C587.6860667129951,37.15691373332993,588.2749305072967,36.68890399999964,588.8637943015983,36.68890399999964C589.0600822330322,36.68890399999964,589.2563701644661,38.25721200000049,589.4526580959,38.705296000000516C589.8452339587677,39.60146400000039,590.2378098216354,39.15338000000045,590.6303856845032,40.04954800000033C590.826673615937,40.497632000000266,591.0229615473709,42.81272799999621,591.2192494788047,42.81272799999621C591.6118253416724,42.81272799999621,592.0044012045402,38.207432666664296,592.3969770674079,36.315523999998305C592.7895529302756,34.423615333332314,593.1821287931433,31.461276000000254,593.574704656011,31.461276000000254C593.9672805188787,31.461276000000254,594.3598563817466,34.97127199999849,594.7524322446143,34.97127199999849C594.9487201760481,34.97127199999849,595.145008107482,33.72326299999977,595.3412960389159,33.163984000000085C595.9301598332174,31.486147000000916,596.5190236275191,29.295531999996854,597.1078874218207,29.295531999996854C597.3041753532545,29.295531999996854,597.5004632846884,31.760001777776314,597.6967512161223,32.730851999998805C598.08932707899,34.67255244444379,598.4819029418577,36.464875999995854,598.8744788047254,36.464875999995854C599.0707667361593,36.464875999995854,599.2670546675932,36.365298666663385,599.4633425990271,36.16614399999844C599.659630530461,35.96698933333354,599.8559184618948,33.15401600000015,600.0522063933287,33.10423200000014C600.8373581190641,32.90509600000009,601.6225098447997,33.00466400000011,602.4076615705351,32.805528000000066C602.9965253648367,32.65617600000004,603.5853891591382,32.47942786666523,604.1742529534398,31.83468399999893C604.5668288163075,31.404854755554688,604.9594046791753,30.11702400000044,605.3519805420431,30.11702400000044C605.9408443363446,30.11702400000044,606.5297081306463,36.315523999998305,607.1185719249479,36.315523999998305C607.3148598563818,36.315523999998305,607.5111477878156,35.64338399999724,607.7074357192495,35.64338399999724C607.9037236506833,35.64338399999724,608.1000115821172,39.302731999998,608.296299513551,39.302731999998C608.8851633078526,39.302731999998,609.4740271021543,31.759980000000326,610.0628908964559,31.759980000000326C610.2591788278897,31.759980000000326,610.4554667593236,35.64338399999724,610.6517546907575,35.64338399999724C610.8480426221913,35.64338399999724,611.0443305536252,35.12062399999604,611.240618485059,35.12062399999604C611.4369064164929,35.12062399999604,611.6331943479267,39.65125266666754,611.8294822793606,40.497632000000266C612.6146340050961,43.88314933333149,613.3997857308316,45.5759079999971,614.1849374565671,45.5759079999971C614.381225388001,45.5759079999971,614.5775133194347,44.90379599999835,614.7738012508686,44.90379599999835C614.9700891823024,44.90379599999835,615.1663771137364,46.08624066666458,615.3626650451703,46.6961319999981C615.5589529766041,47.3060233333315,615.755240908038,48.115059999999175,615.9515288394718,48.56314399999911C616.1478167709057,49.01122799999905,616.3441047023396,49.08591255555368,616.5403926337734,49.38463599999773C617.129256428075,50.28080633332992,617.7181202223767,52.7452519999961,618.3069840166783,52.7452519999961C618.8958478109798,52.7452519999961,619.4847116052814,52.7452519999961,620.073575399583,52.7452519999961C620.2698633310168,52.7452519999961,620.4661512624508,48.56314399999911,620.6624391938847,48.56314399999911C621.0550150567524,48.56314399999911,621.4475909196201,49.75429199999697,621.8401667824878,51.40099999999629C622.2327426453555,53.047707999995765,622.6253185082234,58.443391999995896,623.0178943710911,58.443391999995896C623.6067581653926,58.443391999995896,624.1956219596942,58.04758399999906,624.7844857539958,58.04758399999906C624.9807736854297,58.04758399999906,625.1770616168635,59.130451333333816,625.3733495482974,59.914596000000074C625.5696374797312,60.69874066666648,625.7659254111652,62.727550666662715,625.9622133425991,62.75245199999725C626.1585012740329,62.777353333331774,626.3547892054668,62.78980399999904,626.5510771369006,62.78980399999904C626.7473650683345,62.78980399999904,626.9436529997683,60.88543999999624,627.1399409312022,60.88543999999624C627.3362288626361,60.88543999999624,627.5325167940699,65.59033599999674,627.7288047255038,65.59033599999674C628.1213805883715,65.59033599999674,628.5139564512392,61.18417199999858,628.9065323141069,60.73608799999869C629.6916840398425,59.83991999999881,630.4768357655779,60.28800399999875,631.2619874913134,59.391835999998875C631.4582754227473,59.16779399999893,631.6545633541812,54.50771666666625,631.850851285615,53.08878399999978C632.0471392170489,51.669851333333305,632.2434271484827,50.87824000000006,632.4397150799166,50.87824000000006C632.6360030113505,50.87824000000006,632.8322909427843,52.07313999999735,633.0285788742182,52.07313999999735C633.224866805652,52.07313999999735,633.421154737086,44.012596444444746,633.6174426685199,42.70817599999995C634.2063064628214,38.79491466666632,634.795170257123,36.838283999999504,635.3840340514246,36.838283999999504C635.7766099142923,36.838283999999504,636.16918577716,70.16246533333337,636.5617616400277,80.82519199999956C636.7580495714616,86.15655533333369,636.9543375028956,93.8196000000004,637.1506254343294,93.8196000000004C637.3469133657633,93.8196000000004,637.5432012971971,92.32599599999807,637.739489228631,92.32599599999807C638.1320650914987,92.32599599999807,638.5246409543665,109.5025399999982,638.9172168172342,109.5025399999982C639.1135047486681,109.5025399999982,639.309792680102,102.29467688888629,639.5060806115358,99.04725599999712C640.683808200139,79.56273066666147,641.8615357887422,66.26244800000046,643.0392633773454,66.26244800000046C643.4318392402131,66.26244800000046,643.8244151030809,75.29880400000044,644.2169909659486,75.29880400000044C644.6095668288164,75.29880400000044,645.0021426916841,71.86350266666585,645.3947185545518,70.66861199999855C645.7872944174195,69.47372133333113,646.1798702802873,68.1294599999965,646.572446143155,68.1294599999965C646.7687340745889,68.1294599999965,646.9650220060227,71.35768999999686,647.1613099374565,72.83435599999697C648.3390375260598,81.69435199999992,649.5167651146629,79.81312399998782,650.6944927032662,89.5180159999959C650.8907806347,91.13549799999714,651.0870685661339,93.37649533333303,651.2833564975678,94.71576800000028C651.4796444290016,96.05504066666781,651.6759323604356,96.0849306666666,651.8722202918694,97.55365199999979C652.0685082233033,99.02237333333241,652.264796154737,103.5280959999965,652.4610840861709,103.5280959999965C652.6573720176048,103.5280959999965,652.8536599490387,101.35986373333118,653.0499478804726,100.01809999999826C653.835099606208,94.65104506666732,654.6202513319436,75.67221199999912,655.405403057679,75.67221199999912C655.6016909891129,75.67221199999912,655.7979789205467,84.65878088888803,655.9942668519806,87.8451559999987C656.5831306462821,97.40428133333069,657.1719944405837,102.18384399999668,657.7608582348853,102.18384399999668C657.9571461663191,102.18384399999668,658.1534340977531,101.51173199999793,658.349722029187,101.51173199999793C658.7422978920547,101.51173199999793,659.1348737549224,151.38595266666684,659.5274496177901,167.30537600000005C659.9200254806578,183.22479933333483,660.3126013435257,197.02827199999842,660.7051772063934,197.02827199999842C660.9014651378272,197.02827199999842,661.0977530692611,194.39951999999874,661.294041000695,194.39951999999874C661.6866168635627,194.39951999999874,662.0791927264305,202.70398399999775,662.4717685892982,202.70398399999775C663.0606323835998,202.70398399999775,663.6494961779014,192.39807999999653,664.2383599722029,192.39807999999653C664.4346479036368,192.39807999999653,664.6309358350707,209.84843599999652,664.8272237665045,212.1137479999964C665.2197996293722,216.64437199999662,665.6123754922401,217.05511333332964,666.0049513551078,218.90968399999673C666.3975272179755,220.76425466666362,666.7901030808432,223.24117199999856,667.1826789437109,223.24117199999856C668.3604065323141,223.24117199999856,669.5381341209173,222.64372666666532,670.7158617095205,221.4488359999988C671.6973013666898,220.45309377777673,672.6787410238592,209.08919266666524,673.6601806810285,203.82420799999875C674.6416203381979,198.55922333333206,675.6230599953672,197.4805046666671,676.6044996525366,189.85892799999942C676.8007875839704,188.33461266666632,676.9970755154042,185.12915120000036,677.193363446838,184.9300040000001C678.1748031040074,183.93426799999855,679.1562427611767,184.43213599999933,680.1376824183461,183.43639999999778C680.7265462126477,182.83895839999684,681.3154100069494,178.10916666666515,681.904273801251,167.4547279999976C682.4931375955525,156.80028933333077,683.0820013898541,119.50976799999668,683.6708651841557,119.50976799999668C683.8671531155895,119.50976799999668,684.0634410470234,120.70463999999663,684.2597289784572,120.70463999999663C684.4560169098911,120.70463999999663,684.652304841325,116.38062799999663,684.8485927727588,116.38062799999663C685.2411686356265,116.38062799999663,685.6337444984944,149.0085986666561,686.0263203613621,153.1907159999959C686.2226082927959,155.28177466666557,686.4188962242298,156.32730400000042,686.6151841556637,156.32730400000042C687.2040479499652,156.32730400000042,687.7929117442669,149.48159800000047,688.3817755385685,146.99224400000037C688.9706393328701,144.5028900000004,689.5595031271716,143.46979266666688,690.1483669214732,141.39117999999996C690.7372307157748,139.3125673333329,691.3260945100765,135.56608800000083,691.914958304378,134.52056799999838C692.3075341672458,133.82355466666345,692.7001100301135,134.1720613333309,693.0926858929812,133.47504799999598C693.6815496872828,132.42952799999352,694.2704134815845,114.50613999999878,694.859277275886,114.50613999999878C695.0555652073199,114.50613999999878,695.2518531387537,124.55069199999673,695.4481410701876,124.55069199999673C695.6444290016215,124.55069199999673,695.8407169330554,119.83960799999689,696.0370048644893,117.71743199999695C696.2332927959231,115.59525599999782,696.4295807273569,113.41082822222099,696.6258686587908,111.81763599999915C697.0184445216585,108.63125155555458,697.4110203845263,106.73935999999732,697.803596247394,106.73935999999732C697.9998841788279,106.73935999999732,698.1961721102617,115.02892333333129,698.3924600416956,118.24019199999815C698.5887479731294,121.45146066666562,698.7850359045634,123.85368333333287,698.9813238359973,126.00697199999959C699.1776117674311,128.1602606666659,699.373899698865,131.15992399999772,699.5701876302988,131.15992399999772C700.5516272874681,131.15992399999772,701.5330669446375,127.56491999999635,702.5145066018068,123.96991599999498L702.5145066018068,224C701.5330669446375,224,700.5516272874681,224,699.5701876302988,224C699.373899698865,224,699.1776117674311,224,698.9813238359973,224C698.7850359045634,224,698.5887479731294,224,698.3924600416956,224C698.1961721102617,224,697.9998841788279,224,697.803596247394,224C697.4110203845263,224,697.0184445216585,224,696.6258686587908,224C696.4295807273569,224,696.2332927959231,224,696.0370048644893,224C695.8407169330554,224,695.6444290016215,224,695.4481410701876,224C695.2518531387537,224,695.0555652073199,224,694.859277275886,224C694.2704134815845,224,693.6815496872828,224,693.0926858929812,224C692.7001100301135,224,692.3075341672458,224,691.914958304378,224C691.3260945100765,224,690.7372307157748,224,690.1483669214732,224C689.5595031271716,224,688.9706393328701,224,688.3817755385685,224C687.7929117442669,224,687.2040479499652,224,686.6151841556637,224C686.4188962242298,224,686.2226082927959,224,686.0263203613621,224C685.6337444984944,224,685.2411686356265,224,684.8485927727588,224C684.652304841325,224,684.4560169098911,224,684.2597289784572,224C684.0634410470234,224,683.8671531155895,224,683.6708651841557,224C683.0820013898541,224,682.4931375955525,224,681.904273801251,224C681.3154100069494,224,680.7265462126477,224,680.1376824183461,224C679.1562427611767,224,678.1748031040074,224,677.193363446838,224C676.9970755154042,224,676.8007875839704,224,676.6044996525366,224C675.6230599953672,224,674.6416203381979,224,673.6601806810285,224C672.6787410238592,224,671.6973013666898,224,670.7158617095205,224C669.5381341209173,224,668.3604065323141,224,667.1826789437109,224C666.7901030808432,224,666.3975272179755,224,666.0049513551078,224C665.6123754922401,224,665.2197996293722,224,664.8272237665045,224C664.6309358350707,224,664.4346479036368,224,664.2383599722029,224C663.6494961779014,224,663.0606323835998,224,662.4717685892982,224C662.0791927264305,224,661.6866168635627,224,661.294041000695,224C661.0977530692611,224,660.9014651378272,224,660.7051772063934,224C660.3126013435257,224,659.9200254806578,224,659.5274496177901,224C659.1348737549224,224,658.7422978920547,224,658.349722029187,224C658.1534340977531,224,657.9571461663191,224,657.7608582348853,224C657.1719944405837,224,656.5831306462821,224,655.9942668519806,224C655.7979789205467,224,655.6016909891129,224,655.405403057679,224C654.6202513319436,224,653.835099606208,224,653.0499478804726,224C652.8536599490387,224,652.6573720176048,224,652.4610840861709,224C652.264796154737,224,652.0685082233033,224,651.8722202918694,224C651.6759323604356,224,651.4796444290016,224,651.2833564975678,224C651.0870685661339,224,650.8907806347,224,650.6944927032662,224C649.5167651146629,224,648.3390375260598,224,647.1613099374565,224C646.9650220060227,224,646.7687340745889,224,646.572446143155,224C646.1798702802873,224,645.7872944174195,224,645.3947185545518,224C645.0021426916841,224,644.6095668288164,224,644.2169909659486,224C643.8244151030809,224,643.4318392402131,224,643.0392633773454,224C641.8615357887422,224,640.683808200139,224,639.5060806115358,224C639.309792680102,224,639.1135047486681,224,638.9172168172342,224C638.5246409543665,224,638.1320650914987,224,637.739489228631,224C637.5432012971971,224,637.3469133657633,224,637.1506254343294,224C636.9543375028956,224,636.7580495714616,224,636.5617616400277,224C636.16918577716,224,635.7766099142923,224,635.3840340514246,224C634.795170257123,224,634.2063064628214,224,633.6174426685199,224C633.421154737086,224,633.224866805652,224,633.0285788742182,224C632.8322909427843,224,632.6360030113505,224,632.4397150799166,224C632.2434271484827,224,632.0471392170489,224,631.850851285615,224C631.6545633541812,224,631.4582754227473,224,631.2619874913134,224C630.4768357655779,224,629.6916840398425,224,628.9065323141069,224C628.5139564512392,224,628.1213805883715,224,627.7288047255038,224C627.5325167940699,224,627.3362288626361,224,627.1399409312022,224C626.9436529997683,224,626.7473650683345,224,626.5510771369006,224C626.3547892054668,224,626.1585012740329,224,625.9622133425991,224C625.7659254111652,224,625.5696374797312,224,625.3733495482974,224C625.1770616168635,224,624.9807736854297,224,624.7844857539958,224C624.1956219596942,224,623.6067581653926,224,623.0178943710911,224C622.6253185082234,224,622.2327426453555,224,621.8401667824878,224C621.4475909196201,224,621.0550150567524,224,620.6624391938847,224C620.4661512624508,224,620.2698633310168,224,620.073575399583,224C619.4847116052814,224,618.8958478109798,224,618.3069840166783,224C617.7181202223767,224,617.129256428075,224,616.5403926337734,224C616.3441047023396,224,616.1478167709057,224,615.9515288394718,224C615.755240908038,224,615.5589529766041,224,615.3626650451703,224C615.1663771137364,224,614.9700891823024,224,614.7738012508686,224C614.5775133194347,224,614.381225388001,224,614.1849374565671,224C613.3997857308316,224,612.6146340050961,224,611.8294822793606,224C611.6331943479267,224,611.4369064164929,224,611.240618485059,224C611.0443305536252,224,610.8480426221913,224,610.6517546907575,224C610.4554667593236,224,610.2591788278897,224,610.0628908964559,224C609.4740271021543,224,608.8851633078526,224,608.296299513551,224C608.1000115821172,224,607.9037236506833,224,607.7074357192495,224C607.5111477878156,224,607.3148598563818,224,607.1185719249479,224C606.5297081306463,224,605.9408443363446,224,605.3519805420431,224C604.9594046791753,224,604.5668288163075,224,604.1742529534398,224C603.5853891591382,224,602.9965253648367,224,602.4076615705351,224C601.6225098447997,224,600.8373581190641,224,600.0522063933287,224C599.8559184618948,224,599.659630530461,224,599.4633425990271,224C599.2670546675932,224,599.0707667361593,224,598.8744788047254,224C598.4819029418577,224,598.08932707899,224,597.6967512161223,224C597.5004632846884,224,597.3041753532545,224,597.1078874218207,224C596.5190236275191,224,595.9301598332174,224,595.3412960389159,224C595.145008107482,224,594.9487201760481,224,594.7524322446143,224C594.3598563817466,224,593.9672805188787,224,593.574704656011,224C593.1821287931433,224,592.7895529302756,224,592.3969770674079,224C592.0044012045402,224,591.6118253416724,224,591.2192494788047,224C591.0229615473709,224,590.826673615937,224,590.6303856845032,224C590.2378098216354,224,589.8452339587677,224,589.4526580959,224C589.2563701644661,224,589.0600822330322,224,588.8637943015983,224C588.2749305072967,224,587.6860667129951,224,587.0972029186935,224C586.7046270558258,224,586.312051192958,224,585.9194753300903,224C585.3306115357888,224,584.7417477414872,224,584.1528839471856,224C583.564020152884,224,582.9751563585824,224,582.3862925642808,224C582.1900046328469,224,581.993716701413,224,581.7974287699791,224C581.6011408385452,224,581.4048529071114,224,581.2085649756775,224C580.2271253185082,224,579.2456856613388,224,578.2642460041695,224C577.4790942784341,224,576.6939425526986,224,575.9087908269631,224C574.73106323836,224,573.5533356497567,224,572.3756080611536,224C571.786744266852,224,571.1978804725503,224,570.6090166782487,224C570.216440815381,224,569.8238649525133,224,569.4312890896456,224C568.6461373639102,224,567.8609856381746,224,567.0758339124392,224C566.8795459810053,224,566.6832580495715,224,566.4869701181376,224C566.2906821867037,224,566.0943942552699,224,565.898106323836,224C565.7018183924022,224,565.5055304609682,224,565.3092425295343,224C564.9166666666666,224,564.5240908037989,224,564.1315149409312,224C563.9352270094973,224,563.7389390780634,224,563.5426511466295,224C562.9537873523279,224,562.3649235580264,224,561.7760597637248,224C561.5797718322909,224,561.3834839008571,224,561.1871959694232,224C560.9909080379894,224,560.7946201065555,224,560.5983321751216,224C560.4020442436878,224,560.2057563122538,224,560.00946838082,224C559.8131804493861,224,559.6168925179524,224,559.4206045865185,224C559.0280287236508,224,558.635452860783,224,558.2428769979152,224C557.2614373407459,224,556.2799976835765,224,555.2985580264072,224C554.317118369238,224,553.3356787120686,224,552.3542390548993,224C552.1579511234654,224,551.9616631920314,224,551.7653752605976,224C551.5690873291637,224,551.3727993977299,224,551.176511466296,224C550.9802235348621,224,550.7839356034283,224,550.5876476719944,224C550.3913597405606,224,550.1950718091267,224,549.9987838776929,224C549.802495946259,224,549.606208014825,224,549.4099200833912,224C549.2136321519573,224,549.0173442205236,224,548.8210562890897,224C548.6247683576559,224,548.4284804262219,224,548.232192494788,224C547.8396166319203,224,547.4470407690526,224,547.0544649061849,224C546.858176974751,224,546.661889043317,224,546.4656011118832,224C546.2693131804493,224,546.0730252490155,224,545.8767373175816,224C545.6804493861478,224,545.4841614547139,224,545.28787352328,224C544.6990097289785,224,544.1101459346769,224,543.5212821403753,224C542.5398424832059,224,541.5584028260366,224,540.5769631688672,224C540.1843873059995,224,539.7918114431318,224,539.3992355802641,224C539.2029476488302,224,539.0066597173962,224,538.8103717859624,224C538.4177959230947,224,538.025220060227,224,537.6326441973592,224C536.8474924716238,224,536.0623407458883,224,535.2771890201528,224C535.080901088719,224,534.8846131572851,224,534.6883252258513,224C534.4920372944174,224,534.2957493629835,224,534.0994614315497,224C533.9031735001158,224,533.7068855686819,224,533.510597637248,224C533.1180217743803,224,532.7254459115126,224,532.3328700486448,224C531.7440062543433,224,531.1551424600417,224,530.5662786657401,224C530.1737028028724,224,529.7811269400047,224,529.388551077137,224C528.7996872828354,224,528.2108234885337,224,527.6219596942321,224C526.247944174195,224,524.873928654158,224,523.4999131341209,224C522.5184734769516,224,521.5370338197822,224,520.5555941626129,224C519.7704424368775,224,518.9852907111419,224,518.2001389854065,224C517.8075631225388,224,517.4149872596711,224,517.0224113968034,224C516.6298355339356,224,516.2372596710678,224,515.8446838082001,224C515.4521079453324,224,515.0595320824647,224,514.666956219597,224C514.4706682881631,224,514.2743803567291,224,514.0780924252953,224C513.8818044938614,224,513.6855165624277,224,513.4892286309938,224C513.29294069956,224,513.096652768126,224,512.9003648366921,224C512.7040769052583,224,512.5077889738244,224,512.3115010423905,224C512.1152131109567,224,511.91892517952283,224,511.722637248089,224C511.5263493166551,224,511.3300613852212,224,511.13377345378734,224C510.7411975909196,224,510.3486217280519,224,509.9560458651842,224C509.36718207088256,224,508.778318276581,224,508.18945448227936,224C507.79687861941164,224,507.40430275654387,224,507.01172689367615,224C506.4228630993745,224,505.83399930507295,224,505.2451355107713,224C504.8525596479036,224,504.4599837850359,224,504.0674079221682,224C503.4785441278666,224,502.88968033356497,224,502.3008165392634,224C501.9082406763957,224,501.5156648135279,224,501.1230889506602,224C500.5342251563586,224,499.945361362057,224,499.3564975677554,224C498.96392170488764,224,498.5713458420199,224,498.17876997915215,224C497.9824820477183,224,497.7861941162845,224,497.58990618485063,224C497.3936182534168,224,497.19733032198286,224,497.001042390549,224C496.6084665276813,224,496.2158906648135,224,495.8233148019458,224C495.430738939078,224,495.0381630762103,224,494.64558721334254,224C494.4492992819087,224,494.2530113504749,224,494.056723419041,224C493.86043548760716,224,493.66414755617325,224,493.4678596247394,224C493.27157169330553,224,493.0752837618716,224,492.87899583043776,224C492.6827078990039,224,492.4864199675701,224,492.29013203613624,224C492.0938441047024,224,491.89755617326847,224,491.7012682418346,224C491.50498031040075,224,491.30869237896684,224,491.112404447533,224C490.9161165160991,224,490.7198285846653,224,490.52354065323146,224C490.1309647903637,224,489.738388927496,224,489.3458130646282,224C488.7569492703266,224,488.168085476025,224,487.57922168172337,224C487.18664581885565,224,486.79406995598794,224,486.4014940931202,224C486.20520616168636,224,486.00891823025245,224,485.8126302988186,224C485.61634236738473,224,485.42005443595093,224,485.2237665045171,224C484.8311906416493,224,484.4386147787816,224,484.0460389159138,224C483.4571751216122,224,482.8683113273106,224,482.279447533009,224C481.2980078758397,224,480.31656821867034,224,479.33512856150105,224C478.7462647671994,224,478.15740097289785,224,477.5685371785962,224C476.7833854528607,224,475.9982337271253,224,475.2130820013898,224C475.01679406995595,224,474.82050613852215,224,474.6242182070883,224C473.64277854991894,224,472.6613388927496,224,471.67989923558025,224C471.28732337271254,224,470.89474750984476,224,470.50217164697705,224C470.10959578410933,224,469.7170199212416,224,469.3244440583739,224C469.12815612694004,224,468.9318681955061,224,468.73558026407227,224C467.9504285383368,224,467.16527681260135,224,466.38012508686586,224C466.183837155432,224,465.98754922399814,224,465.7912612925643,224C465.5949733611304,224,465.3986854296965,224,465.20239749826266,224C464.41724577252717,224,463.63209404679174,224,462.84694232105625,224C462.45436645818853,224,462.0617905953208,224,461.6692147324531,224C461.47292680101924,224,461.2766388695853,224,461.08035093815147,224C460.4914871438499,224,459.90262334954826,224,459.3137595552467,224C458.921183692379,224,458.5286078295112,224,458.1360319666435,224C457.9397440352096,224,457.7434561037757,224,457.54716817234186,224C456.56572851517257,224,455.5842888580032,224,454.60284920083393,224C454.4065612694001,224,454.21027333796616,224,454.0139854065323,224C453.6214095436646,224,453.2288336807968,224,452.8362578179291,224C452.0511060921936,224,451.2659543664582,224,450.4808026407227,224C450.2845147092888,224,450.088226777855,224,449.89193884642117,224C449.6956509149873,224,449.4993629835534,224,449.30307505211954,224C448.9104991892518,224,448.51792332638405,224,448.12534746351633,224C447.143907806347,224,446.16246814917764,224,445.1810284920083,224C444.7884526291406,224,444.39587676627286,224,444.00330090340515,224C443.4144371091036,224,442.82557331480194,224,442.23670952050037,224C442.0404215890665,224,441.8441336576326,224,441.64784572619874,224C441.0589819318971,224,440.47011813759553,224,439.8812543432939,224C439.4886784804262,224,439.0961026175585,224,438.70352675469076,224C438.31095089182304,224,437.9183750289553,224,437.5257991660876,224C436.54435950891826,224,435.56291985174886,224,434.5814801945795,224C434.1889043317118,224,433.7963284688441,224,433.40375260597636,224C433.2074646745425,224,433.0111767431086,224,432.81488881167473,224C432.422312948807,224,432.0297370859393,224,431.6371612230716,224C431.44087329163773,224,431.2445853602038,224,431.04829742876996,224C430.8520094973361,224,430.6557215659023,224,430.45943363446844,224C430.2631457030346,224,430.06685777160067,224,429.8705698401668,224C429.2817060458652,224,428.6928422515636,224,428.103978457262,224C427.9076905258281,224,427.7114025943942,224,427.51511466296034,224C427.3188267315265,224,427.1225388000927,224,426.9262508686588,224C426.14109914292334,224,425.3559474171879,224,424.5707956914524,224C423.9819318971508,224,423.3930681028492,224,422.8042043085476,224C422.6079163771137,224,422.41162844567987,224,422.215340514246,224C421.8227646513783,224,421.4301887885105,224,421.0376129256428,224C420.84132499420895,224,420.6450370627751,224,420.44874913134123,224C419.66359740560574,224,418.8784456798703,224,418.0932939541348,224C417.89700602270096,224,417.70071809126705,224,417.5044301598332,224C417.1118542969655,224,416.7192784340977,224,416.32670257123,224C416.13041463979613,224,415.93412670836227,224,415.7378387769284,224C415.14897498262684,224,414.5601111883252,224,413.97124739402364,224C413.7749594625898,224,413.5786715311559,224,413.38238359972206,224C412.5972318739866,224,411.8120801482511,224,411.0269284225156,224C409.65291290247853,224,408.2788973824415,224,406.90488186240447,224C406.31601806810284,224,405.72715427380126,224,405.13829047949963,224C404.54942668519806,224,403.9605628908964,224,403.37169909659485,224C403.175411165161,224,402.97912323372714,224,402.7828353022933,224C402.5865473708594,224,402.3902594394255,224,402.19397150799165,224C401.6051077136901,224,401.01624391938844,224,400.42738012508687,224C314.0606902941858,224,227.69400046328468,224,141.3273106323836,224C141.13102270094973,224,140.93473476951587,224,140.738446838082,224C106.78063470002317,224,72.82282256196433,224,38.86501042390549,224C37.883570766736156,224,36.90213110956683,224,35.9206914523975,224Z" fill="url(https://www.google.com/finance/quote/SAR-EGP#varkUe-237)" mask="url(https://www.google.com/finance/quote/SAR-EGP#YwQBze-237)"></path><path d="M35.9206914523975,61.805939999999936C36.90213110956683,62.81298799999989,37.883570766736156,63.820035999999845,38.86501042390549,63.820035999999845C72.82282256196433,63.820035999999845,106.78063470002317,60.98192799999674,140.738446838082,60.98192799999674C140.93473476951587,60.98192799999674,141.13102270094973,61.35471999999916,141.3273106323836,61.35471999999916C227.69400046328468,61.35471999999916,314.0606902941858,37.21169199999818,400.42738012508687,37.21169199999818C401.01624391938844,37.21169199999818,401.6051077136901,38.03315599999945,402.19397150799165,38.03315599999945C402.3902594394255,38.03315599999945,402.5865473708594,30.639783999996666,402.7828353022933,30.639783999996666C402.97912323372714,30.639783999996666,403.175411165161,31.013192000000316,403.37169909659485,31.013192000000316C403.9605628908964,31.013192000000316,404.54942668519806,23.993199999998865,405.13829047949963,23.993199999998865C405.72715427380126,23.993199999998865,406.31601806810284,25.80796000000087,406.90488186240447,26.300848000000315C408.2788973824415,27.450919999998973,409.65291290247853,26.875883999999644,411.0269284225156,28.025955999998303C411.8120801482511,28.683139999997564,412.5972318739866,31.013192000000316,413.38238359972206,31.013192000000316C413.5786715311559,31.013192000000316,413.7749594625898,30.66883477777715,413.97124739402364,30.490431999999117C414.5601111883252,29.955223666665,415.14897498262684,28.77277200000063,415.7378387769284,28.77277200000063C415.93412670836227,28.77277200000063,416.13041463979613,29.4656506666653,416.32670257123,29.96767199999792C416.7192784340977,30.971714666663203,417.1118542969655,34.22445599999617,417.5044301598332,34.22445599999617C417.70071809126705,34.22445599999617,417.89700602270096,31.685303999999064,418.0932939541348,31.685303999999064C418.8784456798703,31.685303999999064,419.66359740560574,32.43211999999642,420.44874913134123,32.43211999999642C420.6450370627751,32.43211999999642,420.84132499420895,30.56510800000038,421.0376129256428,30.56510800000038C421.4301887885105,30.56510800000038,421.8227646513783,38.39827600000035,422.215340514246,41.39380000000014C422.41162844567987,42.891561999999965,422.6079163771137,45.42655599999955,422.8042043085476,45.42655599999955C423.3930681028492,45.42655599999955,423.9819318971508,43.194123666665796,424.5707956914524,40.721659999999076C425.3559474171879,37.42504177777684,426.14109914292334,26.009591999999742,426.9262508686588,26.009591999999742C427.1225388000927,26.009591999999742,427.3188267315265,39.82548266666518,427.51511466296034,40.27357599999914C427.7114025943942,40.72166933333318,427.9076905258281,40.9457160000002,428.103978457262,40.9457160000002C428.6928422515636,40.9457160000002,429.2817060458652,40.198879000000275,429.8705698401668,39.8254919999992C430.06685777160067,39.701029666665505,430.2631457030346,39.701031999998754,430.45943363446844,39.45211199999787C430.6557215659023,39.203191999997024,430.8520094973361,38.107859999998055,431.04829742876996,38.107859999998055C431.2445853602038,38.107859999998055,431.44087329163773,38.18253599999932,431.6371612230716,38.18253599999932C432.0297370859393,38.18253599999932,432.422312948807,38.082958666665185,432.81488881167473,37.88380399999693C433.0111767431086,37.78422666666279,433.2074646745425,34.79699999999655,433.40375260597636,34.747215999997366C433.7963284688441,34.647647999999,434.1889043317118,34.653338666665945,434.5814801945795,34.59786399999982C435.56291985174886,34.45917733333449,436.54435950891826,34.07510399999862,437.5257991660876,34.07510399999862C437.9183750289553,34.07510399999862,438.31095089182304,34.94637066666562,438.70352675469076,36.68890399999964C439.0961026175585,38.431437333333655,439.4886784804262,53.253087999995984,439.8812543432939,53.253087999995984C440.47011813759553,53.253087999995984,441.0589819318971,38.55594399999799,441.64784572619874,38.55594399999799C441.8441336576326,38.55594399999799,442.0404215890665,38.69077022222024,442.23670952050037,38.854647999998065C442.82557331480194,39.34628133333151,443.4144371091036,39.92506933333166,444.00330090340515,42.06591199999886C444.39587676627286,43.49314044444361,444.7884526291406,51.25719306666505,445.1810284920083,54.83631999999824C446.16246814917764,63.784137333331714,447.143907806347,68.97335199999824,448.12534746351633,68.97335199999824C448.51792332638405,68.97335199999824,448.9104991892518,57.67415733333876,449.30307505211954,56.77800800000051C449.4993629835534,56.32993333333136,449.6956509149873,56.205482666663386,449.89193884642117,56.10589599999679C450.088226777855,56.006309333330215,450.2845147092888,56.0561026666635,450.4808026407227,55.956515999996924C451.2659543664582,55.55816933333056,452.0511060921936,52.23907422221858,452.8362578179291,51.47567599999755C453.2288336807968,51.09397688888703,453.6214095436646,50.87824000000006,454.0139854065323,50.87824000000006C454.21027333796616,50.87824000000006,454.4065612694001,51.16534577777782,454.60284920083393,51.326324C455.5842888580032,52.13121511111082,456.56572851517257,54.61226399999711,457.54716817234186,54.61226399999711C457.7434561037757,54.61226399999711,457.9397440352096,53.641419999995975,458.1360319666435,53.641419999995975C458.5286078295112,53.641419999995975,458.921183692379,54.98567199999579,459.3137595552467,54.98567199999579C459.90262334954826,54.98567199999579,460.4914871438499,53.87165933333253,461.08035093815147,51.99843599999875C461.2766388695853,51.37402822222078,461.47292680101924,50.89898955555352,461.6692147324531,49.832719999997664C462.0617905953208,47.70018088888616,462.45436645818853,39.302731999998,462.84694232105625,39.302731999998C463.63209404679174,39.302731999998,464.41724577252717,50.24595333333586,465.20239749826266,52.222491999999875C465.3986854296965,52.7166266666659,465.5949733611304,53.2680119999973,465.7912612925643,53.2680119999973C465.98754922399814,53.2680119999973,466.183837155432,50.8035639999988,466.38012508686586,50.8035639999988C467.16527681260135,50.8035639999988,467.9504285383368,50.8035639999988,468.73558026407227,50.8035639999988C468.9318681955061,50.8035639999988,469.12815612694004,56.77800800000051,469.3244440583739,56.77800800000051C469.7170199212416,56.77800800000051,470.10959578410933,56.1805626666656,470.50217164697705,54.98567199999579C470.89474750984476,53.79078133332592,471.28732337271254,41.732340533330344,471.67989923558025,41.09506799999775C472.6613388927496,39.50188666666626,473.64277854991894,38.705296000000516,474.6242182070883,38.705296000000516C474.82050613852215,38.705296000000516,475.01679406995595,50.57950799999767,475.2130820013898,50.57950799999767C475.9982337271253,50.57950799999767,476.7833854528607,44.156979999996025,477.5685371785962,44.156979999996025C478.15740097289785,44.156979999996025,478.7462647671994,45.27720399999703,479.33512856150105,45.27720399999703C480.31656821867034,45.27720399999703,481.2980078758397,43.25044227777813,482.279447533009,40.9457160000002C482.8683113273106,39.56288023333339,483.4571751216122,35.86743999999837,484.0460389159138,35.86743999999837C484.4386147787816,35.86743999999837,484.8311906416493,37.06230577777599,485.2237665045171,37.95847999999819C485.42005443595093,38.406567111109204,485.61634236738473,38.8671126666649,485.8126302988186,39.45211199999787C486.00891823025245,40.03711133333095,486.20520616168636,40.12423333333072,486.4014940931202,41.46847599999643C486.79406995598794,44.15696133332759,487.18664581885565,58.60769599999708,487.57922168172337,58.60769599999708C488.168085476025,58.60769599999708,488.7569492703266,54.31355999999704,489.3458130646282,54.31355999999704C489.738388927496,54.31355999999704,490.1309647903637,72.01285466666248,490.52354065323146,72.61029999999585C490.7198285846653,72.90902266666247,490.9161165160991,72.75966133332916,491.112404447533,73.05838399999578C491.30869237896684,73.35710666666246,491.50498031040075,74.97517066666353,491.7012682418346,75.37347999999673C491.89755617326847,75.77178933332993,492.0938441047024,75.97094399999654,492.29013203613624,75.97094399999654C492.4864199675701,75.97094399999654,492.6827078990039,75.44818400000031,492.87899583043776,75.44818400000031C493.0752837618716,75.44818400000031,493.27157169330553,76.00828199999799,493.4678596247394,76.49370399999773C493.66414755617325,76.97912599999748,493.86043548760716,78.36071599999875,494.056723419041,78.36071599999875C494.2530113504749,78.36071599999875,494.4492992819087,76.64305600000026,494.64558721334254,76.64305600000026C495.0381630762103,76.64305600000026,495.430738939078,81.04921999999837,495.8233148019458,81.04921999999837C496.2158906648135,81.04921999999837,496.6084665276813,54.562501777773065,497.001042390549,48.86187599999653C497.19733032198286,46.011563111108124,497.3936182534168,44.08230399999974,497.58990618485063,44.08230399999974C497.7861941162845,44.08230399999974,497.9824820477183,48.26442133333439,498.17876997915215,49.53398800000025C498.5713458420199,52.07312133333246,498.96392170488764,53.34268799999856,499.3564975677554,53.34268799999856C499.945361362057,53.34268799999856,500.5342251563586,45.50123199999584,501.1230889506602,45.50123199999584C501.5156648135279,45.50123199999584,501.9082406763957,48.18972479999851,502.3008165392634,49.30993199999912C502.88968033356497,50.99024280000001,503.4785441278666,52.110449999999126,504.0674079221682,53.34268799999856C504.4599837850359,54.164179999998154,504.8525596479036,55.491865333329606,505.2451355107713,55.65781199999685C505.83399930507295,55.90673199999774,506.4228630993745,56.031191999998185,507.01172689367615,56.031191999998185C507.40430275654387,56.031191999998185,507.79687861941164,53.76755253333185,508.18945448227936,52.59589999999855C508.778318276581,50.83842119999858,509.36718207088256,47.14421599999804,509.9560458651842,47.14421599999804C510.3486217280519,47.14421599999804,510.7411975909196,52.886306666665774,511.13377345378734,54.68693999999837C511.3300613852212,55.58725666666476,511.5263493166551,55.40885466666452,511.722637248089,56.8526839999968C511.91892517952283,58.296513333328946,512.1152131109567,81.00441999999708,512.3115010423905,81.00441999999708C512.5077889738244,81.00441999999708,512.7040769052583,62.379071999995396,512.9003648366921,59.69056799999629C513.096652768126,57.002063999996665,513.29294069956,56.6660033333303,513.4892286309938,55.65781199999685C513.6855165624277,54.64962066666379,513.8818044938614,54.03971066666081,514.0780924252953,53.641419999995975C514.2743803567291,53.243129333330984,514.4706682881631,53.40493822222025,514.666956219597,53.04398399999849C515.0595320824647,52.322075555555095,515.4521079453324,48.93655199999779,515.8446838082001,48.93655199999779C516.2372596710678,48.93655199999779,516.6298355339356,49.832719999997664,517.0224113968034,49.832719999997664C517.4149872596711,49.832719999997664,517.8075631225388,45.02823733333223,518.2001389854065,44.754415999998486C518.9852907111419,44.20677333333097,519.7704424368775,43.932951999997215,520.5555941626129,43.932951999997215C521.5370338197822,43.932951999997215,522.5184734769516,46.0986679999983,523.4999131341209,46.0986679999983C524.873928654158,46.0986679999983,526.247944174195,44.23165599999729,527.6219596942321,44.23165599999729C528.2108234885337,44.23165599999729,528.7996872828354,71.14657199999846,529.388551077137,71.14657199999846C529.7811269400047,71.14657199999846,530.1737028028724,50.69567377777656,530.5662786657401,49.23525599999786C531.1551424600417,47.0446293333298,531.7440062543433,45.949315999995775,532.3328700486448,45.949315999995775C532.7254459115126,45.949315999995775,533.1180217743803,50.131423999997736,533.510597637248,50.131423999997736C533.7068855686819,50.131423999997736,533.9031735001158,49.45931199999899,534.0994614315497,49.45931199999899C534.2957493629835,49.45931199999899,534.4920372944174,50.2808039999976,534.6883252258513,50.2808039999976C534.8846131572851,50.2808039999976,535.080901088719,49.53896919999964,535.2771890201528,49.08590400000031C536.0623407458883,47.273643200002894,536.8474924716238,41.02039199999649,537.6326441973592,41.02039199999649C538.025220060227,41.02039199999649,538.4177959230947,41.385499555555946,538.8103717859624,41.84188400000008C539.0066597173962,42.07007622222219,539.2029476488302,42.663375999998664,539.3992355802641,42.663375999998664C539.7918114431318,42.663375999998664,540.1843873059995,39.302731999998,540.5769631688672,39.302731999998C541.5584028260366,39.302731999998,542.5398424832059,41.64583383333207,543.5212821403753,42.5139959999988C544.1101459346769,43.0348932999988,544.6990097289785,43.85824799999861,545.28787352328,43.85824799999861C545.4841614547139,43.85824799999861,545.6804493861478,43.18613599999986,545.8767373175816,43.18613599999986C546.0730252490155,43.18613599999986,546.2693131804493,61.617303999999905,546.4656011118832,61.617303999999905C546.661889043317,61.617303999999905,546.858176974751,61.617303999999905,547.0544649061849,61.617303999999905C547.4470407690526,61.617303999999905,547.8396166319203,44.754415999998486,548.232192494788,44.754415999998486C548.4284804262219,44.754415999998486,548.6247683576559,47.866139999994935,548.8210562890897,47.96570799999665C549.0173442205236,48.065275999998335,549.2136321519573,48.015491999997494,549.4099200833912,48.115059999999175C549.606208014825,48.21462800000089,549.802495946259,48.38889066666538,549.9987838776929,48.93655199999779C550.1950718091267,49.48421333333009,550.3913597405606,68.63729599999638,550.5876476719944,68.63729599999638C550.7839356034283,68.63729599999638,550.9802235348621,50.67906666666525,551.176511466296,49.23525599999786C551.3727993977299,47.79144533333047,551.5690873291637,47.16912666666334,551.7653752605976,47.06953999999678C551.9616631920314,46.9699533333302,552.1579511234654,46.92015999999691,552.3542390548993,46.92015999999691C553.3356787120686,46.92015999999691,554.317118369238,47.66697599999924,555.2985580264072,47.66697599999924C556.2799976835765,47.66697599999924,557.2614373407459,47.59229066666553,558.2428769979152,47.44291999999811C558.635452860783,47.38317173333114,559.0280287236508,44.90379599999835,559.4206045865185,44.90379599999835C559.6168925179524,44.90379599999835,559.8131804493861,45.42655599999955,560.00946838082,45.42655599999955C560.2057563122538,45.42655599999955,560.4020442436878,44.729523999998946,560.5983321751216,44.30633199999855C560.7946201065555,43.883139999998235,560.9909080379894,42.887403999997474,561.1871959694232,42.887403999997474C561.3834839008571,42.887403999997474,561.5797718322909,43.27739422222094,561.7760597637248,43.41016399999867C562.3649235580264,43.808473333331875,562.9537873523279,44.007627999998476,563.5426511466295,44.007627999998476C563.7389390780634,44.007627999998476,563.9352270094973,43.22346933333096,564.1315149409312,42.887403999997474C564.5240908037989,42.21527333333062,564.9166666666666,42.19040311111009,565.3092425295343,41.31912399999888C565.5055304609682,40.88348444444319,565.7018183924022,40.41049599999855,565.898106323836,39.75081599999794C566.0943942552699,39.091135999997455,566.2906821867037,37.36104399999573,566.4869701181376,37.36104399999573C566.6832580495715,37.36104399999573,566.8795459810053,38.705296000000516,567.0758339124392,38.705296000000516C567.8609856381746,38.705296000000516,568.6461373639102,38.605718666666384,569.4312890896456,38.40656399999813C569.8238649525133,38.306986666664,570.216440815381,36.820009333332706,570.6090166782487,36.2408199999997C571.1978804725503,35.372036000000136,571.786744266852,35.05839088888887,572.3756080611536,34.59786399999982C573.5533356497567,33.67681022222173,574.73106323836,32.880203999996354,575.9087908269631,32.880203999996354C576.6939425526986,32.880203999996354,577.4790942784341,38.189983999998816,578.2642460041695,38.189983999998816C579.2456856613388,38.189983999998816,580.2271253185082,33.92572399999875,581.2085649756775,33.92572399999875C581.4048529071114,33.92572399999875,581.6011408385452,34.14977999999988,581.7974287699791,34.14977999999988C581.993716701413,34.14977999999988,582.1900046328469,33.10423200000014,582.3862925642808,33.10423200000014C582.9751563585824,33.10423200000014,583.564020152884,36.91296933332655,584.1528839471856,37.36104399999573C584.7417477414872,37.80911866666488,585.3306115357888,38.03315599999945,585.9194753300903,38.03315599999945C586.312051192958,38.03315599999945,586.7046270558258,37.62159084444169,587.0972029186935,37.43571999999699C587.6860667129951,37.15691373332993,588.2749305072967,36.68890399999964,588.8637943015983,36.68890399999964C589.0600822330322,36.68890399999964,589.2563701644661,38.25721200000049,589.4526580959,38.705296000000516C589.8452339587677,39.60146400000039,590.2378098216354,39.15338000000045,590.6303856845032,40.04954800000033C590.826673615937,40.497632000000266,591.0229615473709,42.81272799999621,591.2192494788047,42.81272799999621C591.6118253416724,42.81272799999621,592.0044012045402,38.207432666664296,592.3969770674079,36.315523999998305C592.7895529302756,34.423615333332314,593.1821287931433,31.461276000000254,593.574704656011,31.461276000000254C593.9672805188787,31.461276000000254,594.3598563817466,34.97127199999849,594.7524322446143,34.97127199999849C594.9487201760481,34.97127199999849,595.145008107482,33.72326299999977,595.3412960389159,33.163984000000085C595.9301598332174,31.486147000000916,596.5190236275191,29.295531999996854,597.1078874218207,29.295531999996854C597.3041753532545,29.295531999996854,597.5004632846884,31.760001777776314,597.6967512161223,32.730851999998805C598.08932707899,34.67255244444379,598.4819029418577,36.464875999995854,598.8744788047254,36.464875999995854C599.0707667361593,36.464875999995854,599.2670546675932,36.365298666663385,599.4633425990271,36.16614399999844C599.659630530461,35.96698933333354,599.8559184618948,33.15401600000015,600.0522063933287,33.10423200000014C600.8373581190641,32.90509600000009,601.6225098447997,33.00466400000011,602.4076615705351,32.805528000000066C602.9965253648367,32.65617600000004,603.5853891591382,32.47942786666523,604.1742529534398,31.83468399999893C604.5668288163075,31.404854755554688,604.9594046791753,30.11702400000044,605.3519805420431,30.11702400000044C605.9408443363446,30.11702400000044,606.5297081306463,36.315523999998305,607.1185719249479,36.315523999998305C607.3148598563818,36.315523999998305,607.5111477878156,35.64338399999724,607.7074357192495,35.64338399999724C607.9037236506833,35.64338399999724,608.1000115821172,39.302731999998,608.296299513551,39.302731999998C608.8851633078526,39.302731999998,609.4740271021543,31.759980000000326,610.0628908964559,31.759980000000326C610.2591788278897,31.759980000000326,610.4554667593236,35.64338399999724,610.6517546907575,35.64338399999724C610.8480426221913,35.64338399999724,611.0443305536252,35.12062399999604,611.240618485059,35.12062399999604C611.4369064164929,35.12062399999604,611.6331943479267,39.65125266666754,611.8294822793606,40.497632000000266C612.6146340050961,43.88314933333149,613.3997857308316,45.5759079999971,614.1849374565671,45.5759079999971C614.381225388001,45.5759079999971,614.5775133194347,44.90379599999835,614.7738012508686,44.90379599999835C614.9700891823024,44.90379599999835,615.1663771137364,46.08624066666458,615.3626650451703,46.6961319999981C615.5589529766041,47.3060233333315,615.755240908038,48.115059999999175,615.9515288394718,48.56314399999911C616.1478167709057,49.01122799999905,616.3441047023396,49.08591255555368,616.5403926337734,49.38463599999773C617.129256428075,50.28080633332992,617.7181202223767,52.7452519999961,618.3069840166783,52.7452519999961C618.8958478109798,52.7452519999961,619.4847116052814,52.7452519999961,620.073575399583,52.7452519999961C620.2698633310168,52.7452519999961,620.4661512624508,48.56314399999911,620.6624391938847,48.56314399999911C621.0550150567524,48.56314399999911,621.4475909196201,49.75429199999697,621.8401667824878,51.40099999999629C622.2327426453555,53.047707999995765,622.6253185082234,58.443391999995896,623.0178943710911,58.443391999995896C623.6067581653926,58.443391999995896,624.1956219596942,58.04758399999906,624.7844857539958,58.04758399999906C624.9807736854297,58.04758399999906,625.1770616168635,59.130451333333816,625.3733495482974,59.914596000000074C625.5696374797312,60.69874066666648,625.7659254111652,62.727550666662715,625.9622133425991,62.75245199999725C626.1585012740329,62.777353333331774,626.3547892054668,62.78980399999904,626.5510771369006,62.78980399999904C626.7473650683345,62.78980399999904,626.9436529997683,60.88543999999624,627.1399409312022,60.88543999999624C627.3362288626361,60.88543999999624,627.5325167940699,65.59033599999674,627.7288047255038,65.59033599999674C628.1213805883715,65.59033599999674,628.5139564512392,61.18417199999858,628.9065323141069,60.73608799999869C629.6916840398425,59.83991999999881,630.4768357655779,60.28800399999875,631.2619874913134,59.391835999998875C631.4582754227473,59.16779399999893,631.6545633541812,54.50771666666625,631.850851285615,53.08878399999978C632.0471392170489,51.669851333333305,632.2434271484827,50.87824000000006,632.4397150799166,50.87824000000006C632.6360030113505,50.87824000000006,632.8322909427843,52.07313999999735,633.0285788742182,52.07313999999735C633.224866805652,52.07313999999735,633.421154737086,44.012596444444746,633.6174426685199,42.70817599999995C634.2063064628214,38.79491466666632,634.795170257123,36.838283999999504,635.3840340514246,36.838283999999504C635.7766099142923,36.838283999999504,636.16918577716,70.16246533333337,636.5617616400277,80.82519199999956C636.7580495714616,86.15655533333369,636.9543375028956,93.8196000000004,637.1506254343294,93.8196000000004C637.3469133657633,93.8196000000004,637.5432012971971,92.32599599999807,637.739489228631,92.32599599999807C638.1320650914987,92.32599599999807,638.5246409543665,109.5025399999982,638.9172168172342,109.5025399999982C639.1135047486681,109.5025399999982,639.309792680102,102.29467688888629,639.5060806115358,99.04725599999712C640.683808200139,79.56273066666147,641.8615357887422,66.26244800000046,643.0392633773454,66.26244800000046C643.4318392402131,66.26244800000046,643.8244151030809,75.29880400000044,644.2169909659486,75.29880400000044C644.6095668288164,75.29880400000044,645.0021426916841,71.86350266666585,645.3947185545518,70.66861199999855C645.7872944174195,69.47372133333113,646.1798702802873,68.1294599999965,646.572446143155,68.1294599999965C646.7687340745889,68.1294599999965,646.9650220060227,71.35768999999686,647.1613099374565,72.83435599999697C648.3390375260598,81.69435199999992,649.5167651146629,79.81312399998782,650.6944927032662,89.5180159999959C650.8907806347,91.13549799999714,651.0870685661339,93.37649533333303,651.2833564975678,94.71576800000028C651.4796444290016,96.05504066666781,651.6759323604356,96.0849306666666,651.8722202918694,97.55365199999979C652.0685082233033,99.02237333333241,652.264796154737,103.5280959999965,652.4610840861709,103.5280959999965C652.6573720176048,103.5280959999965,652.8536599490387,101.35986373333118,653.0499478804726,100.01809999999826C653.835099606208,94.65104506666732,654.6202513319436,75.67221199999912,655.405403057679,75.67221199999912C655.6016909891129,75.67221199999912,655.7979789205467,84.65878088888803,655.9942668519806,87.8451559999987C656.5831306462821,97.40428133333069,657.1719944405837,102.18384399999668,657.7608582348853,102.18384399999668C657.9571461663191,102.18384399999668,658.1534340977531,101.51173199999793,658.349722029187,101.51173199999793C658.7422978920547,101.51173199999793,659.1348737549224,151.38595266666684,659.5274496177901,167.30537600000005C659.9200254806578,183.22479933333483,660.3126013435257,197.02827199999842,660.7051772063934,197.02827199999842C660.9014651378272,197.02827199999842,661.0977530692611,194.39951999999874,661.294041000695,194.39951999999874C661.6866168635627,194.39951999999874,662.0791927264305,202.70398399999775,662.4717685892982,202.70398399999775C663.0606323835998,202.70398399999775,663.6494961779014,192.39807999999653,664.2383599722029,192.39807999999653C664.4346479036368,192.39807999999653,664.6309358350707,209.84843599999652,664.8272237665045,212.1137479999964C665.2197996293722,216.64437199999662,665.6123754922401,217.05511333332964,666.0049513551078,218.90968399999673C666.3975272179755,220.76425466666362,666.7901030808432,223.24117199999856,667.1826789437109,223.24117199999856C668.3604065323141,223.24117199999856,669.5381341209173,222.64372666666532,670.7158617095205,221.4488359999988C671.6973013666898,220.45309377777673,672.6787410238592,209.08919266666524,673.6601806810285,203.82420799999875C674.6416203381979,198.55922333333206,675.6230599953672,197.4805046666671,676.6044996525366,189.85892799999942C676.8007875839704,188.33461266666632,676.9970755154042,185.12915120000036,677.193363446838,184.9300040000001C678.1748031040074,183.93426799999855,679.1562427611767,184.43213599999933,680.1376824183461,183.43639999999778C680.7265462126477,182.83895839999684,681.3154100069494,178.10916666666515,681.904273801251,167.4547279999976C682.4931375955525,156.80028933333077,683.0820013898541,119.50976799999668,683.6708651841557,119.50976799999668C683.8671531155895,119.50976799999668,684.0634410470234,120.70463999999663,684.2597289784572,120.70463999999663C684.4560169098911,120.70463999999663,684.652304841325,116.38062799999663,684.8485927727588,116.38062799999663C685.2411686356265,116.38062799999663,685.6337444984944,149.0085986666561,686.0263203613621,153.1907159999959C686.2226082927959,155.28177466666557,686.4188962242298,156.32730400000042,686.6151841556637,156.32730400000042C687.2040479499652,156.32730400000042,687.7929117442669,149.48159800000047,688.3817755385685,146.99224400000037C688.9706393328701,144.5028900000004,689.5595031271716,143.46979266666688,690.1483669214732,141.39117999999996C690.7372307157748,139.3125673333329,691.3260945100765,135.56608800000083,691.914958304378,134.52056799999838C692.3075341672458,133.82355466666345,692.7001100301135,134.1720613333309,693.0926858929812,133.47504799999598C693.6815496872828,132.42952799999352,694.2704134815845,114.50613999999878,694.859277275886,114.50613999999878C695.0555652073199,114.50613999999878,695.2518531387537,124.55069199999673,695.4481410701876,124.55069199999673C695.6444290016215,124.55069199999673,695.8407169330554,119.83960799999689,696.0370048644893,117.71743199999695C696.2332927959231,115.59525599999782,696.4295807273569,113.41082822222099,696.6258686587908,111.81763599999915C697.0184445216585,108.63125155555458,697.4110203845263,106.73935999999732,697.803596247394,106.73935999999732C697.9998841788279,106.73935999999732,698.1961721102617,115.02892333333129,698.3924600416956,118.24019199999815C698.5887479731294,121.45146066666562,698.7850359045634,123.85368333333287,698.9813238359973,126.00697199999959C699.1776117674311,128.1602606666659,699.373899698865,131.15992399999772,699.5701876302988,131.15992399999772C700.5516272874681,131.15992399999772,701.5330669446375,127.56491999999635,702.5145066018068,123.96991599999498" fill="none" opacity="1" stroke="#EA4335" stroke-dasharray="none" stroke-width="2"></path><line style="stroke-dasharray: 1.5, 7.5; stroke: rgba(0, 0, 0, 0.62);" x1="0" x2="879" y1="47.960191999997846" y2="47.960191999997846"></line></g><g class="NuOFub"><line class="IThbXb" style="fill: none; stroke-width: 2; stroke: rgb(32, 33, 36); stroke-dasharray: 1.5, 6; stroke-linecap: round; opacity: 0;" x1="702.5145066018068" x2="702.5145066018068" y1="224" y2="0"></line><line class="S1pwT" style="fill: none; stroke-width: 2; stroke: rgb(32, 33, 36); stroke-dasharray: 1.5, 6; stroke-linecap: round; opacity: 0;" y1="224" y2="0"></line><circle class="eLYY7" cx="702.5145066018068" cy="123.96991599999498" r="5" style="fill: rgb(234, 67, 53); opacity: 1;"></circle><circle class="hulySc" r="5" style="fill: rgb(234, 67, 53); opacity: 0;"></circle></g><g class="Zelcpf"><rect fill="none" height="224" pointer-events="all" width="875.375"></rect></g></g></svg>