<svg height="100%" style="overflow: visible;" width="100%"><g transform="translate(47.77304649353027,16)"><defs><lineargradient id="varkUe-159" x1="0%" x2="0%" y1="0%" y2="100%"><stop offset="0%" stop-color="#EA4335" stop-opacity="0.38"></stop><stop offset="90%" stop-color="#FCDEE5" stop-opacity="0"></stop></lineargradient><mask id="DAdeKc-159"><rect fill="white" height="228" width="849.2269535064697" y="-2"></rect></mask></defs><g class="pmHZZb"><g fill="none" font-family="sans-serif" font-size="10" text-anchor="middle" transform="translate(0,224)"><path class="domain" d="M0.5,0.5H849.7269535064697" stroke="currentColor" style="color: rgb(95, 99, 104); stroke-width: 1; opacity: 1;"></path><g class="tick" opacity="1" transform="translate(35.90904601138859,0)"><line stroke="currentColor" style="color: rgb(95, 99, 104); stroke-width: 2;" y2="6"></line><text dy="0.71em" fill="currentColor" style="font-family: Roboto, Arial, sans-serif; font-size: 12px; line-height: 16px; color: rgb(95, 99, 104);" y="14">1:00 AM</text></g><g class="tick" opacity="1" transform="translate(177.54523005694296,0)"><line stroke="currentColor" style="color: rgb(95, 99, 104); stroke-width: 2;" y2="6"></line><text dy="0.71em" fill="currentColor" style="font-family: Roboto, Arial, sans-serif; font-size: 12px; line-height: 16px; color: rgb(95, 99, 104);" y="14">5:00 AM</text></g><g class="tick" opacity="1" transform="translate(319.18141410249734,0)"><line stroke="currentColor" style="color: rgb(95, 99, 104); stroke-width: 2;" y2="6"></line><text dy="0.71em" fill="currentColor" style="font-family: Roboto, Arial, sans-serif; font-size: 12px; line-height: 16px; color: rgb(95, 99, 104);" y="14">9:00 AM</text></g><g class="tick" opacity="1" transform="translate(460.8175981480517,0)"><line stroke="currentColor" style="color: rgb(95, 99, 104); stroke-width: 2;" y2="6"></line><text dy="0.71em" fill="currentColor" style="font-family: Roboto, Arial, sans-serif; font-size: 12px; line-height: 16px; color: rgb(95, 99, 104);" y="14">1:00 PM</text></g><g class="tick" opacity="1" transform="translate(602.453782193606,0)"><line stroke="currentColor" style="color: rgb(95, 99, 104); stroke-width: 2;" y2="6"></line><text dy="0.71em" fill="currentColor" style="font-family: Roboto, Arial, sans-serif; font-size: 12px; line-height: 16px; color: rgb(95, 99, 104);" y="14">5:00 PM</text></g><g class="tick" opacity="1" transform="translate(744.0899662391605,0)"><line stroke="currentColor" style="color: rgb(95, 99, 104); stroke-width: 2;" y2="6"></line><text dy="0.71em" fill="currentColor" style="font-family: Roboto, Arial, sans-serif; font-size: 12px; line-height: 16px; color: rgb(95, 99, 104);" y="14">9:00 PM</text></g></g><g fill="none" font-family="sans-serif" font-size="10" text-anchor="end" transform="translate(0, 0)"><g class="tick" opacity="1" transform="translate(0,224.5)"><line stroke="currentColor" style="opacity: 0.5; stroke-width: 1px; color: rgb(232, 234, 237);" transform="translate(0, 0)" x2="849.2269535064697"></line><text dy="0.32em" fill="currentColor" style="font-family: Roboto, Arial, sans-serif; font-size: 12px; line-height: 16px; letter-spacing: 0.3px; color: rgb(95, 99, 104);" x="-8">12.76</text></g><g class="tick" opacity="1" transform="translate(0,187.16666666666777)"><line stroke="currentColor" style="opacity: 0.5; stroke-width: 1px; color: rgb(232, 234, 237);" transform="translate(0, 0)" x2="849.2269535064697"></line><text dy="0.32em" fill="currentColor" style="font-family: Roboto, Arial, sans-serif; font-size: 12px; line-height: 16px; letter-spacing: 0.3px; color: rgb(95, 99, 104);" x="-8">12.77</text></g><g class="tick" opacity="1" transform="translate(0,149.83333333333553)"><line stroke="currentColor" style="opacity: 0.5; stroke-width: 1px; color: rgb(232, 234, 237);" transform="translate(0, 0)" x2="849.2269535064697"></line><text dy="0.32em" fill="currentColor" style="font-family: Roboto, Arial, sans-serif; font-size: 12px; line-height: 16px; letter-spacing: 0.3px; color: rgb(95, 99, 104);" x="-8">12.78</text></g><g class="tick" opacity="1" transform="translate(0,112.50000000000333)"><line stroke="currentColor" style="opacity: 0.5; stroke-width: 1px; color: rgb(232, 234, 237);" transform="translate(0, 0)" x2="849.2269535064697"></line><text dy="0.32em" fill="currentColor" style="font-family: Roboto, Arial, sans-serif; font-size: 12px; line-height: 16px; letter-spacing: 0.3px; color: rgb(95, 99, 104);" x="-8">12.79</text></g><g class="tick" opacity="1" transform="translate(0,75.16666666666447)"><line stroke="currentColor" style="opacity: 0.5; stroke-width: 1px; color: rgb(232, 234, 237);" transform="translate(0, 0)" x2="849.2269535064697"></line><text dy="0.32em" fill="currentColor" style="font-family: Roboto, Arial, sans-serif; font-size: 12px; line-height: 16px; letter-spacing: 0.3px; color: rgb(95, 99, 104);" x="-8">12.80</text></g><g class="tick" opacity="1" transform="translate(0,37.833333333332234)"><line stroke="currentColor" style="opacity: 0.5; stroke-width: 1px; color: rgb(232, 234, 237);" transform="translate(0, 0)" x2="849.2269535064697"></line><text dy="0.32em" fill="currentColor" style="font-family: Roboto, Arial, sans-serif; font-size: 12px; line-height: 16px; letter-spacing: 0.3px; color: rgb(95, 99, 104);" x="-8">12.81</text></g><g class="tick" opacity="1" transform="translate(0,0.5)"><line stroke="currentColor" style="opacity: 0.5; stroke-width: 1px; color: rgb(232, 234, 237);" transform="translate(0, 0)" x2="849.2269535064697"></line><text dy="0.32em" fill="currentColor" style="font-family: Roboto, Arial, sans-serif; font-size: 12px; line-height: 16px; letter-spacing: 0.3px; color: rgb(95, 99, 104);" x="-8">12.82</text></g></g></g><g class="d2NTdf"></g><g class="gJBfM" mask="url(https://www.google.com/finance/quote/SAR-EGP#DAdeKc-159)"><path d="M2.360603067425906,123.20246400000194L2.9507538342823825,137.73569600000127L16.524221471981342,132.67310933333442L17.11437223883782,138.34680533333102L27.14693527539792,133.44800000000023L28.32723680911087,134.8415413333364L35.999196778245064,131.74664533333464L36.589347545101546,136.1268160000007L42.490855213666315,130.0356959999977L44.26130751423574,132.1260266666635L54.29387055079584,130.31211200000226L58.424925918791175,131.50659200000126L69.04763972220775,131.00318933333014L69.63779048906423,125.428986666669L82.03095659305023,131.51305066666515L83.2112581267632,129.9204106666687L86.75216272790206,36.17013866666875L87.34231349475853,36.56904533333494L94.42412269703624,127.60951466666378L97.9650272981751,127.21135466666632L107.9975903347352,132.85723733333614L109.17789186844817,131.26459733333306L119.80060567186474,131.6283360000008L122.75135950614711,135.01267733333088L133.3740733095637,134.27306666666618L133.96422407642018,130.1918986666634L159.34070705124867,124.76012266666876L159.93085781810512,132.46445333333253L173.50432545580412,137.02401066666596L174.09447622266057,130.75324266666718L187.07779309350306,132.2749493333303L188.258094627216,131.67772800000236L200.06110996434555,133.94569066666958L201.2414114980585,135.488527999997L212.45427606833152,132.17541866666505L213.63457760204452,131.08050666666776L224.25729140546107,127.07172799999937L224.84744217231753,127.46988799999683L237.24060827630356,129.48786666666467L239.01106057687298,131.37909866666354L250.22392514714605,132.675087999999L250.81407591400253,131.3213066666699L261.4367897174191,137.49392533333167L262.02694048427554,132.71578133333043L262.6170912511321,121.99827733333558L263.2072420179885,117.26997333333313L298.61628802937713,196.22407466666354L300.3867403299465,138.0927146666634L309.8291525996502,132.33893866666602L310.41930336650665,131.07479466666598L312.1897556670761,133.26465599999705L313.370057200789,130.1789439999992L315.14050950135845,125.3015306666677L315.73066026821493,133.26465599999705L317.5011125687844,134.8572586666637L318.09126333564086,133.56324799999948L321.0420171699232,135.55404800000002L321.6321679367797,138.44066133333095L322.22231870363623,132.26923733333518L323.40262023734914,131.55027200000106L323.40262023734914,224L322.22231870363623,224L321.6321679367797,224L321.0420171699232,224L318.09126333564086,224L317.5011125687844,224L315.73066026821493,224L315.14050950135845,224L313.370057200789,224L312.1897556670761,224L310.41930336650665,224L309.8291525996502,224L300.3867403299465,224L298.61628802937713,224L263.2072420179885,224L262.6170912511321,224L262.02694048427554,224L261.4367897174191,224L250.81407591400253,224L250.22392514714605,224L239.01106057687298,224L237.24060827630356,224L224.84744217231753,224L224.25729140546107,224L213.63457760204452,224L212.45427606833152,224L201.2414114980585,224L200.06110996434555,224L188.258094627216,224L187.07779309350306,224L174.09447622266057,224L173.50432545580412,224L159.93085781810512,224L159.34070705124867,224L133.96422407642018,224L133.3740733095637,224L122.75135950614711,224L119.80060567186474,224L109.17789186844817,224L107.9975903347352,224L97.9650272981751,224L94.42412269703624,224L87.34231349475853,224L86.75216272790206,224L83.2112581267632,224L82.03095659305023,224L69.63779048906423,224L69.04763972220775,224L58.424925918791175,224L54.29387055079584,224L44.26130751423574,224L42.490855213666315,224L36.589347545101546,224L35.999196778245064,224L28.32723680911087,224L27.14693527539792,224L17.11437223883782,224L16.524221471981342,224L2.9507538342823825,224L2.360603067425906,224Z" fill="url(https://www.google.com/finance/quote/SAR-EGP#varkUe-159)" mask="url(https://www.google.com/finance/quote/SAR-EGP#YwQBze-159)"></path><path d="M2.360603067425906,123.20246400000194L2.9507538342823825,137.73569600000127L16.524221471981342,132.67310933333442L17.11437223883782,138.34680533333102L27.14693527539792,133.44800000000023L28.32723680911087,134.8415413333364L35.999196778245064,131.74664533333464L36.589347545101546,136.1268160000007L42.490855213666315,130.0356959999977L44.26130751423574,132.1260266666635L54.29387055079584,130.31211200000226L58.424925918791175,131.50659200000126L69.04763972220775,131.00318933333014L69.63779048906423,125.428986666669L82.03095659305023,131.51305066666515L83.2112581267632,129.9204106666687L86.75216272790206,36.17013866666875L87.34231349475853,36.56904533333494L94.42412269703624,127.60951466666378L97.9650272981751,127.21135466666632L107.9975903347352,132.85723733333614L109.17789186844817,131.26459733333306L119.80060567186474,131.6283360000008L122.75135950614711,135.01267733333088L133.3740733095637,134.27306666666618L133.96422407642018,130.1918986666634L159.34070705124867,124.76012266666876L159.93085781810512,132.46445333333253L173.50432545580412,137.02401066666596L174.09447622266057,130.75324266666718L187.07779309350306,132.2749493333303L188.258094627216,131.67772800000236L200.06110996434555,133.94569066666958L201.2414114980585,135.488527999997L212.45427606833152,132.17541866666505L213.63457760204452,131.08050666666776L224.25729140546107,127.07172799999937L224.84744217231753,127.46988799999683L237.24060827630356,129.48786666666467L239.01106057687298,131.37909866666354L250.22392514714605,132.675087999999L250.81407591400253,131.3213066666699L261.4367897174191,137.49392533333167L262.02694048427554,132.71578133333043L262.6170912511321,121.99827733333558L263.2072420179885,117.26997333333313L298.61628802937713,196.22407466666354L300.3867403299465,138.0927146666634L309.8291525996502,132.33893866666602L310.41930336650665,131.07479466666598L312.1897556670761,133.26465599999705L313.370057200789,130.1789439999992L315.14050950135845,125.3015306666677L315.73066026821493,133.26465599999705L317.5011125687844,134.8572586666637L318.09126333564086,133.56324799999948L321.0420171699232,135.55404800000002L321.6321679367797,138.44066133333095L322.22231870363623,132.26923733333518L323.40262023734914,131.55027200000106" fill="none" opacity="1" stroke="#EA4335" stroke-dasharray="none" stroke-width="2"></path><line style="stroke-dasharray: 1.5, 7.5; stroke: rgba(0, 0, 0, 0.62);" x1="0" x2="881" y1="129.93747200000112" y2="129.93747200000112"></line></g><g class="NuOFub"><line class="IThbXb" style="fill: none; stroke-width: 2; stroke: rgb(32, 33, 36); stroke-dasharray: 1.5, 6; stroke-linecap: round; opacity: 0;" x1="323.40262023734914" x2="323.40262023734914" y1="224" y2="0"></line><line class="S1pwT" style="fill: none; stroke-width: 2; stroke: rgb(32, 33, 36); stroke-dasharray: 1.5, 6; stroke-linecap: round; opacity: 0;" y1="224" y2="0"></line><circle class="eLYY7" cx="323.40262023734914" cy="131.55027200000106" r="5" style="fill: rgb(234, 67, 53); opacity: 1;"></circle><circle class="hulySc" r="5" style="fill: rgb(234, 67, 53); opacity: 0;"></circle></g><g class="Zelcpf"><rect fill="none" height="224" pointer-events="all" width="877.2269535064697"></rect></g></g></svg>